<svg width="1170" height="597" viewBox="0 0 1170 597" fill="none" xmlns="http://www.w3.org/2000/svg">
<g clip-path="url(#clip0_130_281)">
<path d="M0 151.821C4.1 151.541 8.18999 151.011 12.29 151.011C67.65 150.951 123.01 150.79 178.37 151.18C185.65 151.18 193.18 153.451 200.14 155.951C223.86 164.501 247.38 173.62 270.99 182.52C275.47 184.21 279.99 185.841 285.17 187.761C285.34 184.641 285.63 181.87 285.62 179.1C285.62 157.1 285.62 135.02 285.49 112.99C285.4 97.1505 284.59 81.2905 285.16 65.4805C285.42 58.1505 282.16 54.0005 277.36 49.6105C261.53 35.1005 245.92 20.3605 230.3 5.61048C229.42 4.78048 228.64 2.9305 228.97 1.9405C229.3 0.950498 231.1 0.50048 232.36 0.14048C233.422 -0.0287474 234.502 -0.0523053 235.57 0.0704729H433.9C441.96 0.0704729 441.97 0.0704727 441.96 8.07047C441.91 58.0705 441.96 108.071 441.75 158.071C441.617 185.284 441.157 212.491 440.37 239.691C440.23 244.841 442 247.051 446.37 248.691C465.7 255.691 485.03 262.69 504.24 270.09C524.09 277.68 543.81 285.64 563.58 293.43C568.58 295.43 573.58 297.21 578.58 299.31C585.58 302.31 591.58 298.92 597.67 296.59C646.12 278.1 694.49 259.401 742.97 241.011C796.37 220.771 849.817 200.664 903.31 180.691C927.93 171.431 952.53 162.111 977.23 153.061C981.105 151.707 985.185 151.03 989.29 151.061C1046.44 150.927 1103.59 150.927 1160.74 151.061C1163.77 151.2 1166.8 151.494 1169.8 151.941V157.321C1167.7 158.851 1165.28 160.081 1163.56 161.951C1151.1 175.491 1138.89 189.27 1126.32 202.71C1122.52 206.78 1121.21 210.84 1121.23 216.49C1121.44 278.4 1121.23 340.31 1121.34 402.22C1121.47 404.651 1122.39 406.974 1123.96 408.831C1130.71 416.691 1137.7 424.37 1144.76 431.96C1153.02 440.84 1161.44 449.58 1169.76 458.38V463.75C1167.08 463.75 1164.4 463.75 1161.76 463.75H980.11C972.53 463.75 972.57 463.6 972.58 455.75C972.66 390.17 972.717 324.594 972.75 259.02C972.75 255.08 971.49 254.32 967.9 255.72C955.07 260.72 942.18 265.59 929.3 270.47C889.967 285.377 850.633 300.274 811.3 315.16C778.67 327.51 745.91 339.54 713.45 352.35C698.14 358.4 650.86 374.97 643.74 377.51C625.06 384.17 606.64 391.571 588.08 398.581C586.51 399.171 584.41 399.73 583.01 399.18C567.72 393.13 516.01 375.181 510.08 372.701C495.08 366.391 479.74 360.95 464.53 355.18C457.25 352.42 449.96 349.701 441.97 346.701V352.86C441.93 407.32 441.87 461.787 441.79 516.26C441.79 520.17 443.19 521.07 446.79 521.07C515.23 520.997 583.673 520.997 652.12 521.07C703.36 521.07 754.6 521.15 805.84 521C808.254 520.813 810.524 519.779 812.25 518.081C824.25 506.281 836.05 494.25 847.93 482.31C873.437 456.637 898.97 430.99 924.53 405.37C926.02 403.88 928.4 403.28 930.37 402.27C930.97 403.97 932.09 405.67 932.09 407.37C932.19 468.464 932.19 529.56 932.09 590.66C932.09 592.78 930.77 594.9 930.09 597.02H225.79C223.48 593.6 225.64 591.5 227.91 589.23C245.837 571.23 263.713 553.144 281.54 534.97C283.23 533.24 284.83 530.45 284.83 528.15C284.977 449.53 285.023 370.91 284.97 292.29C284.97 288.55 283.9 286.581 280.17 285.201C253.863 275.394 227.603 265.444 201.39 255.35C197.39 253.81 196.85 255.43 196.86 258.96C196.94 324.154 196.973 389.344 196.96 454.53C196.96 463.36 196.68 463.67 188.02 463.67H0.0199966V457.22C2.17 455.84 4.74 454.84 6.41 453.02C19.49 438.81 32.53 424.56 45.23 410.02C47.4067 407.313 48.6299 403.963 48.71 400.49C48.91 338.15 48.91 275.817 48.71 213.49C48.6113 210.728 47.6063 208.075 45.85 205.941C36.59 195.274 27.1333 184.777 17.48 174.451C11.91 168.451 5.84 162.98 0 157.28V151.821ZM284.17 568.55L285.05 569.87H906.52V461.63C879.36 488.49 852.17 515.24 825.21 542.21C823.6 543.959 821.63 545.337 819.435 546.25C817.241 547.163 814.875 547.59 812.5 547.5C682.94 547.38 553.38 547.347 423.82 547.4C415.39 547.4 415.33 547.35 415.33 539.1V26.6405H290.83C296.46 31.8605 301.45 36.6405 306.61 41.1905C308.195 42.4775 309.461 44.1143 310.308 45.9725C311.154 47.8306 311.559 49.8597 311.49 51.9005C311.37 213.18 311.37 374.46 311.49 535.74C311.588 537.777 311.228 539.81 310.437 541.689C309.646 543.568 308.444 545.247 306.92 546.6C299.2 553.79 291.73 561.22 284.17 568.55ZM1113.44 178.05C1112.57 177.788 1111.68 177.597 1110.78 177.48C1070.64 177.48 1030.5 177.5 990.37 177.54C988.593 177.578 986.835 177.916 985.17 178.54C969.56 184.2 953.96 189.85 938.41 195.68C905.51 208.01 872.66 220.471 839.76 232.811C820.76 239.961 801.59 246.911 782.55 254.081C761.05 262.181 739.63 270.501 718.13 278.581C696.63 286.661 674.97 294.581 653.43 302.581C631.89 310.581 610.73 318.851 589.24 326.581C586.07 327.711 581.75 327.33 578.48 326.17C563.36 320.81 548.48 314.9 533.42 309.25C509.72 300.33 486.01 291.437 462.29 282.57C455.84 280.15 449.37 277.78 442.03 275.06C442.03 289.47 441.96 302.85 442.16 316.23C442.16 317.31 443.87 318.86 445.16 319.35C460.28 325.277 475.44 331.11 490.64 336.85C520.98 348.324 551.347 359.734 581.74 371.081C583.83 371.748 586.082 371.713 588.15 370.98C599.86 366.71 611.44 362.09 623.15 357.71C646.52 348.91 669.95 340.27 693.29 331.42C723.68 319.9 753.98 308.16 784.37 296.65C820.87 282.83 857.45 269.221 893.94 255.381C925.94 243.241 957.88 230.9 989.85 218.68C995.67 216.45 998.19 218.28 998.19 224.6C998.19 288.6 998.19 352.57 998.19 416.51V436.17H1112.83L1099.12 421.22C1096.28 418.13 1094.51 414.89 1094.52 410.3C1094.69 341.854 1094.69 273.404 1094.52 204.951C1094.47 202.831 1094.85 200.724 1095.65 198.758C1096.44 196.792 1097.63 195.01 1099.14 193.52C1103.78 188.58 1108.39 183.52 1113.44 178.05ZM284.93 258.73V229.571C284.93 216.471 284.93 216.47 272.93 211.67C271.77 211.21 270.69 210.54 269.52 210.11C245.13 200.98 220.75 191.791 196.3 182.811C190.49 180.671 184.44 177.81 178.46 177.73C140.84 177.3 103.21 177.56 65.58 177.59H55.39C60.58 183.4 64.85 188.86 69.86 193.53C72.91 196.36 73.57 199.37 73.55 203.04C73.51 215.4 73.4933 227.764 73.5 240.131C73.5 297.464 73.5 354.797 73.5 412.13C73.5 415.96 73 419.13 69.66 422.13C65.14 426.13 61.51 431.13 57.02 436.13H170.8V423.87V225.52C170.8 218.43 174.05 216.38 180.74 219.09C188.5 222.23 196.293 225.287 204.12 228.261C223.12 235.501 242.12 242.704 261.12 249.87C268.72 252.74 276.39 255.54 284.93 258.73Z" fill="black"/>
<path d="M284.17 568.55C291.73 561.22 299.17 553.79 306.89 546.55C308.414 545.196 309.616 543.518 310.407 541.638C311.198 539.759 311.558 537.726 311.46 535.69C311.373 374.41 311.373 213.13 311.46 51.8498C311.529 49.809 311.124 47.78 310.277 45.9218C309.431 44.0636 308.165 42.4269 306.58 41.1398C301.42 36.5698 296.43 31.8098 290.8 26.5898H415.3V539.1C415.3 547.35 415.36 547.4 423.79 547.4C553.35 547.4 682.91 547.433 812.47 547.5C814.845 547.589 817.211 547.163 819.405 546.249C821.6 545.336 823.57 543.958 825.18 542.21C852.18 515.21 879.33 488.49 906.49 461.63V569.87H285.05L284.17 568.55Z" fill="white"/>
<path d="M1113.44 178.05C1108.44 183.53 1103.78 188.59 1099.09 193.59C1097.58 195.08 1096.39 196.862 1095.6 198.828C1094.8 200.793 1094.42 202.901 1094.47 205.02C1094.63 273.467 1094.63 341.917 1094.47 410.37C1094.47 414.96 1096.23 418.2 1099.07 421.29L1112.78 436.24H998.1V416.57C998.1 352.57 998.1 288.6 998.1 224.66C998.1 218.34 995.58 216.51 989.76 218.74C957.76 230.96 925.86 243.3 893.85 255.44C857.39 269.28 820.79 282.89 784.29 296.71C753.9 308.22 723.6 319.96 693.21 331.48C669.87 340.33 646.44 348.97 623.07 357.77C611.4 362.15 599.82 366.77 588.07 371.04C586.002 371.772 583.751 371.807 581.66 371.14C551.247 359.807 520.88 348.397 490.56 336.91C475.36 331.163 460.2 325.33 445.08 319.41C443.83 318.92 442.14 317.41 442.08 316.29C441.88 302.91 441.95 289.53 441.95 275.12C449.29 277.84 455.76 280.21 462.21 282.63C485.977 291.51 509.704 300.403 533.39 309.31C548.39 314.96 563.33 320.87 578.45 326.23C581.72 327.39 586.04 327.77 589.21 326.64C610.7 318.91 632 310.64 653.4 302.64C674.8 294.64 696.56 286.64 718.1 278.64C739.64 270.64 761.02 262.24 782.52 254.14C801.52 246.97 820.68 240.02 839.73 232.87C872.63 220.53 905.48 208.07 938.38 195.74C953.93 189.91 969.53 184.26 985.14 178.6C986.805 177.976 988.563 177.638 990.34 177.6C1030.47 177.527 1070.6 177.507 1110.75 177.54C1111.66 177.636 1112.56 177.806 1113.44 178.05Z" fill="white"/>
<path d="M284.93 258.73C276.35 255.54 268.72 252.73 261.12 249.87C242.1 242.69 223.1 235.487 204.12 228.26C196.3 225.28 188.496 222.21 180.71 219.05C174.02 216.34 170.77 218.39 170.77 225.48V423.83V436.1H56.9796C61.4696 431.01 65.0996 426.02 69.6196 422.1C72.9596 419.17 73.4596 415.97 73.4596 412.1C73.4596 354.767 73.4596 297.434 73.4596 240.1C73.4596 227.734 73.4763 215.37 73.5096 203.01C73.5096 199.34 72.8696 196.33 69.8196 193.5C64.8196 188.83 60.5396 183.37 55.3496 177.56H65.5896C103.22 177.56 140.85 177.27 178.47 177.7C184.47 177.77 190.47 180.64 196.31 182.78C220.76 191.78 245.14 200.95 269.53 210.08C270.7 210.51 271.78 211.18 272.94 211.64C284.94 216.44 284.94 216.44 284.94 229.54L284.93 258.73Z" fill="white"/>
</g>
<defs>
<clipPath id="clip0_130_281">
<rect width="1169.83" height="596.96" fill="white"/>
</clipPath>
</defs>
</svg>
