<svg width="443" height="226" viewBox="0 0 443 226" fill="none" xmlns="http://www.w3.org/2000/svg">
<path d="M0.660156 57.6636C2.2105 57.5577 3.75706 57.3573 5.3074 57.3573C26.2408 57.3346 47.1742 57.2741 68.1076 57.4215C70.8604 57.4215 73.7077 58.2799 76.3395 59.2252C85.3088 62.4583 94.2025 65.9068 103.13 69.2722C104.824 69.9112 106.533 70.5276 108.492 71.2536C108.556 70.0738 108.666 69.0264 108.662 67.979C108.662 59.6601 108.662 51.3109 108.613 42.9807C108.579 36.9911 108.273 30.994 108.488 25.0157C108.587 22.244 107.354 20.6748 105.539 19.0148C99.5531 13.5281 93.6504 7.95444 87.744 2.37701C87.4113 2.06316 87.1163 1.36363 87.2411 0.989277C87.3659 0.614927 88.0465 0.444762 88.523 0.308634C88.9245 0.244644 89.3328 0.235736 89.7368 0.282163H164.732C167.779 0.282163 167.783 0.282162 167.779 3.30721C167.761 22.2138 167.779 41.1203 167.7 60.0269C167.65 70.3171 167.476 80.6048 167.178 90.8899C167.125 92.8373 167.795 93.673 169.447 94.2931C176.756 96.94 184.066 99.5869 191.33 102.385C198.835 105.255 206.292 108.265 213.768 111.211C215.659 111.967 217.549 112.64 219.44 113.434C222.087 114.568 224.356 113.287 226.658 112.406C244.979 105.414 263.269 98.3429 281.601 91.3891C301.793 83.7357 322.003 76.1327 342.231 68.5802C351.54 65.0787 360.842 61.5545 370.182 58.1324C371.648 57.6205 373.19 57.3647 374.743 57.3762C396.352 57.3258 417.962 57.3258 439.573 57.3762C440.72 57.429 441.864 57.54 442.999 57.7089V59.7433C442.205 60.3218 441.29 60.7869 440.64 61.494C435.928 66.6139 431.311 71.8245 426.558 76.9066C425.121 78.4456 424.626 79.9808 424.633 82.1173C424.713 105.527 424.633 128.937 424.675 152.348C424.722 153.267 425.071 154.145 425.666 154.847C428.218 157.819 430.861 160.723 433.531 163.593C436.654 166.951 439.838 170.256 442.984 173.583V175.614C441.971 175.614 440.957 175.614 439.959 175.614H371.271C368.405 175.614 368.42 175.557 368.424 172.589C368.454 147.791 368.476 122.994 368.488 98.1992C368.488 96.7093 368.012 96.422 366.654 96.9513C361.803 98.842 356.929 100.683 352.058 102.529C337.185 108.165 322.312 113.798 307.439 119.427C295.1 124.097 282.713 128.646 270.439 133.49C264.649 135.778 246.771 142.043 244.079 143.004C237.015 145.522 230.05 148.32 223.032 150.971C222.438 151.194 221.644 151.406 221.115 151.198C215.333 148.91 195.78 142.123 193.538 141.185C187.866 138.799 182.065 136.742 176.314 134.56C173.561 133.517 170.805 132.488 167.783 131.354V133.683C167.768 154.276 167.745 174.872 167.715 195.47C167.715 196.948 168.245 197.288 169.606 197.288C195.485 197.261 221.366 197.261 247.248 197.288C266.623 197.288 285.999 197.319 305.374 197.262C306.287 197.191 307.146 196.8 307.798 196.158C312.336 191.696 316.798 187.147 321.29 182.632C330.935 172.924 340.59 163.226 350.255 153.539C350.818 152.975 351.718 152.748 352.463 152.366C352.69 153.009 353.113 153.652 353.113 154.295C353.151 177.396 353.151 200.499 353.113 223.603C353.113 224.404 352.614 225.206 352.357 226.007H86.0386C85.1651 224.714 85.9819 223.92 86.8403 223.062C93.6189 216.255 100.379 209.416 107.119 202.544C107.759 201.89 108.364 200.835 108.364 199.966C108.419 170.237 108.437 140.508 108.416 110.78C108.416 109.365 108.012 108.62 106.601 108.099C96.6541 104.39 86.7243 100.628 76.8122 96.8114C75.2997 96.2291 75.0955 96.8417 75.0993 98.1765C75.1295 122.828 75.1421 147.478 75.1371 172.128C75.1371 175.466 75.0312 175.584 71.7566 175.584H0.667718V173.145C1.4807 172.623 2.4525 172.245 3.08399 171.557C8.02995 166.183 12.9608 160.795 17.7631 155.297C18.5862 154.273 19.0487 153.007 19.079 151.693C19.1546 128.121 19.1546 104.551 19.079 80.9829C19.0417 79.9383 18.6616 78.9351 17.9975 78.128C14.496 74.0946 10.9201 70.1255 7.26991 66.2207C5.16371 63.9519 2.86845 61.8835 0.660156 59.7281V57.6636ZM108.114 215.242L108.447 215.741H343.445V174.812C333.175 184.969 322.893 195.084 312.699 205.282C312.09 205.943 311.345 206.464 310.515 206.81C309.685 207.155 308.791 207.316 307.893 207.282C258.902 207.237 209.911 207.224 160.92 207.245C157.733 207.245 157.71 207.226 157.71 204.106V10.3291H110.632C112.761 12.3029 114.648 14.1104 116.599 15.8309C117.199 16.3176 117.677 16.9365 117.997 17.6391C118.318 18.3418 118.471 19.109 118.445 19.8807C118.399 80.8657 118.399 141.851 118.445 202.836C118.482 203.606 118.345 204.374 118.046 205.085C117.747 205.796 117.293 206.43 116.716 206.942C113.797 209.661 110.973 212.47 108.114 215.242ZM421.688 67.5819C421.359 67.4826 421.022 67.4105 420.682 67.3664C405.504 67.3664 390.327 67.3739 375.151 67.3891C374.479 67.4034 373.814 67.5312 373.185 67.7672C367.282 69.9074 361.383 72.0439 355.503 74.2484C343.063 78.9107 330.641 83.6222 318.2 88.2884C311.016 90.992 303.767 93.62 296.568 96.3312C288.438 99.3941 280.338 102.54 272.208 105.595C264.078 108.651 255.888 111.646 247.743 114.671C239.598 117.696 231.597 120.823 223.471 123.746C222.272 124.173 220.639 124.029 219.402 123.591C213.685 121.564 208.058 119.329 202.363 117.193C193.402 113.82 184.436 110.457 175.467 107.104C173.028 106.189 170.581 105.293 167.806 104.264C167.806 109.713 167.779 114.773 167.855 119.832C167.855 120.24 168.502 120.827 168.99 121.012C174.707 123.253 180.439 125.459 186.187 127.629C197.659 131.968 209.142 136.282 220.635 140.573C221.425 140.825 222.276 140.812 223.059 140.535C227.487 138.92 231.865 137.173 236.293 135.517C245.13 132.189 253.99 128.922 262.815 125.576C274.307 121.22 285.764 116.781 297.256 112.428C311.058 107.202 324.89 102.056 338.688 96.8228C350.788 92.2323 362.865 87.5661 374.954 82.9454C377.155 82.1022 378.108 82.7941 378.108 85.1839C378.108 109.384 378.108 133.573 378.108 157.751V165.185H421.457L416.273 159.532C415.199 158.364 414.53 157.138 414.533 155.403C414.599 129.521 414.599 103.638 414.533 77.7537C414.515 76.9522 414.66 76.1554 414.96 75.4121C415.261 74.6688 415.71 73.9949 416.28 73.4316C418.035 71.5636 419.778 69.6503 421.688 67.5819ZM108.401 98.0895V87.0632C108.401 82.1097 108.401 82.1097 103.864 80.2947C103.425 80.1207 103.017 79.8674 102.574 79.7048C93.3517 76.2525 84.1328 72.7774 74.8875 69.3818C72.6906 68.5726 70.4029 67.4912 68.1416 67.4609C53.9163 67.2983 39.6872 67.3966 25.4581 67.408H21.6049C23.5674 69.6049 25.182 71.6695 27.0765 73.4354C28.2298 74.5055 28.4793 75.6437 28.4718 77.0314C28.4567 81.7051 28.4504 86.3801 28.4529 91.0563C28.4529 112.736 28.4529 134.415 28.4529 156.095C28.4529 157.543 28.2638 158.742 27.0008 159.876C25.2917 161.389 23.9191 163.279 22.2213 165.17H65.2451V160.534V85.5318C65.2451 82.8508 66.4741 82.0757 69.0038 83.1004C71.9381 84.2877 74.885 85.4436 77.8445 86.5679C85.029 89.3056 92.2135 92.0294 99.398 94.7393C102.272 95.8245 105.172 96.8833 108.401 98.0895Z" fill="white"/>
</svg>
