<svg width="298" height="278" viewBox="0 0 298 278" fill="none" xmlns="http://www.w3.org/2000/svg">
<path d="M132.416 207.202C131.884 206.593 131.418 205.945 130.842 205.417C128.399 203.178 125.986 200.9 123.449 198.771C115.494 192.098 107.469 185.507 99.5084 178.84C95.5962 175.563 91.7535 172.203 87.9015 168.855C84.6067 165.991 82.4364 162.385 81.0618 158.273C80.5666 156.792 80.2563 155.262 80.186 153.71C80.1511 152.937 80.3491 152.139 80.5292 151.373C81.0925 148.978 81.7384 146.602 82.2682 144.199C82.5192 143.062 82.649 141.885 82.7055 140.72C82.7603 139.59 82.4404 139.159 81.3494 138.864C80.2225 138.559 79.0656 138.311 77.906 138.192C74.8658 137.881 71.8163 137.853 68.7704 138.162C68.3922 138.2 68.0152 138.268 67.6432 138.348C66.8732 138.514 66.7691 138.634 66.8004 139.417C66.8471 140.589 66.9329 141.759 66.9813 142.932C67.1933 148.067 67.1742 153.184 66.2149 158.27C65.2561 163.354 62.994 167.706 59.3918 171.412C55.977 174.926 52.1395 177.899 48.0544 180.572C43.0393 183.854 37.7493 186.635 32.3334 189.186C31.6705 189.498 30.9995 189.795 30.3497 190.133C26.0185 192.383 21.4802 192.788 16.8687 191.329C8.75324 188.761 3.24718 183.442 0.842381 175.211C-0.668612 170.04 -0.0727023 164.919 2.03689 159.994C3.47289 156.642 5.32201 153.507 7.49645 150.58C8.18925 149.648 9.04429 148.816 9.91788 148.043C11.3488 146.776 13.0811 146.192 14.9821 146.055C17.5608 145.869 20.0633 146.349 22.5647 146.862C24.6906 147.298 26.8193 147.631 29.0025 147.725C31.3291 147.826 32.7722 146.445 33.5659 144.433C34.1636 142.918 34.4933 141.288 34.8488 139.689C35.6379 136.138 36.2367 132.552 36.5372 128.926C36.6628 127.411 36.6247 125.881 36.6398 124.358C36.6472 123.608 36.3851 122.932 36.035 122.27C35.021 120.354 34.0136 118.433 33.0498 116.491C31.2333 112.83 30.5598 108.949 30.8589 104.88C31.0658 102.064 31.4163 99.2831 32.3797 96.6064C33.9775 92.1665 36.832 88.8268 41.1522 86.8995C45.1109 85.1335 49.147 83.5405 53.1513 81.877C55.965 80.7081 58.7725 79.5232 61.6035 78.3977C62.7438 77.9444 63.9447 77.6455 65.1086 77.2489C66.2438 76.862 67.3797 76.4715 68.492 76.0245C69.5898 75.5834 70.2524 74.7534 70.2938 73.5439C70.3398 72.1987 70.4111 70.8449 70.3147 69.5062C70.0341 65.6127 69.3706 61.768 68.6218 57.9418C67.4795 52.105 66.2857 46.2782 65.1109 40.4477C65.089 40.3392 65.0305 40.2382 64.9565 40.0514C64.6703 40.1812 64.4102 40.2868 64.1613 40.414C61.8383 41.6014 59.5155 42.789 57.1969 43.9848C56.5282 44.3297 55.8403 44.5268 55.0814 44.4004C53.5085 44.1384 52.4622 42.8829 52.5971 41.2954C52.6813 40.3055 52.8854 39.3247 53.0559 38.3434C53.5822 35.312 54.1046 32.2798 54.6649 29.2546C54.7514 28.788 54.5597 28.5515 54.2721 28.2798C52.0972 26.2248 49.9277 24.1642 47.7588 22.103C46.9934 21.3756 46.1944 20.6783 45.4813 19.9024C44.197 18.5051 44.5085 16.3738 46.1248 15.4419C46.544 15.2002 47.049 15.0554 47.532 14.9845C51.3599 14.4229 55.1905 13.8794 59.0243 13.359C59.631 13.2766 60.002 13.0585 60.287 12.4804C61.8811 9.24712 63.5225 6.03717 65.1482 2.81952C65.2672 2.58404 65.3857 2.34814 65.5123 2.11675C66.0932 1.05532 66.9494 0.464082 68.1991 0.449504C69.4833 0.434526 70.3857 1.00944 70.9759 2.11173C71.4324 2.96429 71.8647 3.82992 72.3022 4.69257C73.6145 7.28039 74.9423 9.86068 76.2206 12.4652C76.5023 13.0391 76.8731 13.2652 77.4817 13.347C81.3454 13.8658 85.205 14.4142 89.0652 14.9583C90.3298 15.1365 91.2649 15.7751 91.6799 17.0124C92.0351 18.0715 91.7985 19.0462 91.0445 19.8703C90.6491 20.3024 90.2146 20.6993 89.7899 21.1039C87.3474 23.4308 84.9139 25.7673 82.4488 28.0701C81.9684 28.5189 81.8158 28.9147 81.9436 29.5911C82.64 33.2763 83.2683 36.9744 83.9169 40.6686C84.1364 41.9183 83.8763 43.0174 82.8107 43.8005C81.7632 44.5705 80.6321 44.592 79.4913 44.0169C77.2403 42.882 74.9979 41.7302 72.7504 40.5885C72.4985 40.4605 72.2362 40.3528 71.9162 40.2072C71.6256 41.4451 71.6321 42.6026 71.7249 43.7668C72.2083 49.8326 73.7951 55.6491 75.7814 61.3636C76.5111 63.4629 77.4276 65.499 78.3034 67.5448C78.6132 68.2685 79.053 68.9369 79.438 69.6279C80.1565 70.9174 81.2533 71.7407 82.6172 72.2649C84.2475 72.8915 85.943 73.2269 87.6694 73.3609C89.8615 73.5311 92.0596 73.6674 94.2573 73.7144C99.8494 73.8341 104.924 75.4634 109.446 78.7679C110.772 79.7368 112.074 80.739 113.387 81.7256C114.18 82.3214 114.76 83.1084 115.184 83.9771C116.199 86.0557 117.21 88.14 118.11 90.2695C119.81 94.2904 121.378 98.3671 123.108 102.374C123.825 104.035 124.767 105.605 125.704 107.159C126.135 107.874 126.753 108.496 127.366 109.076C128.135 109.803 129.038 109.997 130.025 109.444C130.791 109.014 131.593 108.644 132.343 108.189C134.549 106.85 136.738 105.484 138.932 104.125C139.077 104.035 139.207 103.92 139.387 103.785C139.027 103.285 138.693 102.812 138.35 102.346C135.918 99.0372 133.508 95.7124 131.044 92.428C128.983 89.6798 127.972 86.6312 127.941 83.1868C127.869 75.0913 127.741 66.9961 127.58 58.9018C127.513 55.5599 128.31 52.5113 130.288 49.8092C130.839 49.0562 131.477 48.3542 132.148 47.7041C134.171 45.7451 136.224 43.8165 138.276 41.888C144.309 36.2182 153.231 36.5861 158.748 42.7715C160.622 44.8722 162.387 47.07 164.199 49.2253C165.256 50.4825 166.323 51.7322 167.356 53.0089C167.696 53.4288 168.006 53.5477 168.552 53.3839C171.189 52.5917 173.851 51.88 176.487 51.0835C179.285 50.238 182.069 50.2016 184.897 50.9372C188.583 51.8961 192.292 52.7679 195.976 53.7348C196.637 53.9083 196.989 53.7345 197.404 53.2723C200.619 49.6938 203.847 46.1259 207.09 42.5726C209.302 40.1495 212.033 38.6446 215.285 38.1501C219.456 37.5158 223.24 38.4863 226.46 41.2094C228.652 43.0634 230.739 45.0535 232.755 47.0998C235.407 49.7924 236.673 53.1325 236.69 56.8911C236.729 65.3398 236.717 73.7889 236.694 82.2378C236.687 84.9312 235.978 87.4504 234.553 89.7546C228.709 99.2065 222.872 108.663 217.021 118.11C215.646 120.329 213.777 122.032 211.451 123.223C206.754 125.627 202.053 128.023 197.359 130.431C196.054 131.1 194.687 131.588 193.1 131.894C193.399 132.218 193.606 132.451 193.823 132.675C198.023 137.029 202.526 141.059 207.098 145.012C214.667 151.555 222.405 157.892 230.383 163.931C231.621 164.868 232.92 165.708 234.252 166.518C235.797 167.457 237.205 168.628 238.652 169.726C240.286 170.967 241.861 172.29 243.532 173.478C244.406 174.099 245.403 174.572 246.393 174.998C247.769 175.59 249.089 175.41 250.261 174.427C250.351 174.352 250.459 174.297 250.543 174.216C252.548 172.288 255.05 171.299 257.637 170.485C261.151 169.379 264.725 168.671 268.438 168.747C274.041 168.862 279.103 170.589 283.606 173.872C290.334 178.778 294.469 185.425 296.428 193.464C297.283 196.971 297.542 200.535 297.087 204.12C296.042 212.334 292.011 218.689 285.015 223.118C281.027 225.643 276.685 227.269 271.986 227.873C268.657 228.302 265.362 228.045 262.13 227.188C260.122 226.655 258.15 225.984 256.172 225.346C254.606 224.84 253.28 223.939 252.139 222.759C251.792 222.401 251.423 222.064 251.087 221.696C249.604 220.071 247.739 219.281 245.572 219.123C242.635 218.908 239.783 218.243 236.944 217.501C233.31 216.55 230.268 214.545 227.437 212.166C224.346 209.568 221.695 206.552 219.148 203.436C212.297 195.057 205.475 186.654 198.571 178.319C194.511 173.417 190.32 168.621 185.833 164.099C184.699 162.956 183.473 161.902 182.266 160.834C181.667 160.304 180.958 159.949 180.176 159.748C179.204 159.499 178.773 159.718 178.406 160.667C178.333 160.858 178.264 161.054 178.217 161.252C177.577 163.951 176.211 166.299 174.724 168.598C171.306 173.883 166.721 177.911 161.382 181.154C159.921 182.041 158.439 182.843 156.766 183.263C156.174 183.412 155.603 183.666 155.043 183.918C154.7 184.072 154.367 184.28 154.082 184.525C153.443 185.073 153.379 185.533 153.908 186.186C154.478 186.892 155.097 187.562 155.735 188.207C156.519 188.999 157.344 189.751 158.154 190.516C163.034 195.125 167.392 200.185 171.175 205.727C173.719 209.456 175.684 213.47 176.791 217.875C177.665 221.353 177.934 224.877 177.562 228.435C177.463 229.381 177.195 230.35 176.804 231.218C175.866 233.3 174.916 235.39 173.781 237.367C167.428 248.431 160.137 258.848 151.892 268.587C150.777 269.904 149.519 271.103 148.279 272.308C147.824 272.749 147.264 273.116 146.694 273.399C142.84 275.307 138.823 276.749 134.573 277.478C132.394 277.852 130.203 277.936 128.006 277.601C126.245 277.333 124.707 276.631 123.423 275.369C120.705 272.695 117.925 270.082 115.25 267.366C110.639 262.684 106.082 257.944 101.928 252.845C97.2261 247.072 94.3649 240.475 93.4467 233.07C92.9688 229.216 93.1441 225.392 94.3619 221.676C96.5941 214.863 101.27 210.766 108.267 209.276C111.117 208.669 113.984 208.845 116.855 209.016C120.28 209.221 123.704 209.547 127.137 209.266C128.211 209.178 129.284 208.962 130.329 208.696C131.121 208.494 131.864 208.113 132.416 207.202ZM155.256 91.8904C155.271 95.9348 155.437 99.5339 156.13 103.089C156.457 104.76 156.853 106.417 157.749 107.894C158.815 109.649 160.184 109.778 161.462 108.18C162.077 107.41 162.585 106.531 163.014 105.639C164.186 103.197 164.894 100.593 165.475 97.9577C166.932 91.3422 167.527 84.6416 167.415 77.8732C167.36 74.5248 167.103 71.1976 166.348 67.9261C166.018 66.4945 165.604 65.0842 164.74 63.8647C163.798 62.533 162.621 62.4149 161.518 63.6237C160.914 64.2856 160.415 65.0684 159.987 65.8606C159.022 67.6474 158.412 69.5783 157.884 71.5329C156.046 78.3413 155.37 85.2968 155.256 91.8904ZM196.759 96.6194C196.856 98.1696 196.95 100.691 197.188 103.198C197.396 105.385 197.748 107.565 198.561 109.625C198.859 110.379 199.245 111.128 199.733 111.77C200.517 112.799 201.526 112.885 202.461 112.002C203.048 111.448 203.596 110.787 203.955 110.07C204.635 108.714 205.261 107.314 205.742 105.876C207.066 101.916 207.791 97.8226 208.292 93.6839C209.031 87.5801 209.248 81.4693 208.587 75.3456C208.37 73.3338 208.062 71.33 207.358 69.4223C207.056 68.6054 206.687 67.7866 206.197 67.0721C205.356 65.8442 204.188 65.7477 203.156 66.8147C202.574 67.4167 202.089 68.1383 201.672 68.8698C200.739 70.5073 200.14 72.2897 199.626 74.0954C197.622 81.1394 196.923 88.3568 196.759 96.6194Z" fill="white"/>
</svg>
